HIERARCHY
ROOT Hips
{
	OFFSET 0.000000 35.082581 0.000000
	CHANNELS 6 Xposition Yposition Zposition Xrotation Yrotation Zrotation 
	JOINT Spine
	{
		OFFSET 0.000000 6.876099 0.125700
		CHANNELS 3 Xrotation Yrotation Zrotation
		JOINT Spine1
		{
			OFFSET 0.000000 5.730043 0.104720
			CHANNELS 3 Xrotation Yrotation Zrotation
			JOINT Spine1_split
			{
				OFFSET 0.000000 5.730043 0.104720
				CHANNELS 3 Xrotation Yrotation Zrotation
				JOINT Spine2
				{
					OFFSET 0.000000 5.730043 0.104720
					CHANNELS 3 Xrotation Yrotation Zrotation
					JOINT Neck
					{
						OFFSET 0.000000 10.314075 0.188496
						CHANNELS 3 Xrotation Yrotation Zrotation
						JOINT Head
						{
							OFFSET 0.000000 7.643700 -2.377400
							CHANNELS 3 Xrotation Yrotation Zrotation
							JOINT HeadTop_End
							{
								OFFSET 0.000000 43.788605 -13.619600
								CHANNELS 3 Xrotation Yrotation Zrotation
								End Site
								{
									OFFSET 0.000000 0.000000 0.000000
								}
							}
						}
					}
					JOINT LeftShoulder
					{
						OFFSET 2.196100 4.412489 0.087492
						CHANNELS 3 Xrotation Yrotation Zrotation
						JOINT LeftShoulder_split
						{
							OFFSET 2.196100 4.412489 0.087492
							CHANNELS 3 Xrotation Yrotation Zrotation
							JOINT LeftArm
							{
								OFFSET 8.771219 -2.981674 -0.026999
								CHANNELS 3 Xrotation Yrotation Zrotation
								JOINT LeftForeArm
								{
									OFFSET 8.512804 0.000000 -0.000000
									CHANNELS 3 Xrotation Yrotation Zrotation
									JOINT LeftHand
									{
										OFFSET 18.484802 0.000000 -0.000000
										CHANNELS 3 Xrotation Yrotation Zrotation
										JOINT LeftHandThumb1
										{
											OFFSET 2.499420 -1.158070 2.653252
											CHANNELS 3 Xrotation Yrotation Zrotation
											JOINT LeftHandThumb2
											{
												OFFSET 2.370079 -1.368366 1.368366
												CHANNELS 3 Xrotation Yrotation Zrotation
												JOINT LeftHandThumb3
												{
													OFFSET 2.676727 -1.545410 1.545409
													CHANNELS 3 Xrotation Yrotation Zrotation
													JOINT LeftHandThumb4
													{
														OFFSET 1.692226 -0.977005 0.977007
														CHANNELS 3 Xrotation Yrotation Zrotation
														End Site
														{
															OFFSET 0.000000 0.000000 0.000000
														}
													}
												}
											}
										}
										JOINT LeftHandIndex1
										{
											OFFSET 7.924831 -0.457527 2.345128
											CHANNELS 3 Xrotation Yrotation Zrotation
											JOINT LeftHandIndex2
											{
												OFFSET 3.643303 0.000000 0.000000
												CHANNELS 3 Xrotation Yrotation Zrotation
												JOINT LeftHandIndex3
												{
													OFFSET 3.810799 0.000000 0.000000
													CHANNELS 3 Xrotation Yrotation Zrotation
													JOINT LeftHandIndex4
													{
														OFFSET 2.403702 0.000000 0.000000
														CHANNELS 3 Xrotation Yrotation Zrotation
														End Site
														{
															OFFSET 0.000000 0.000000 0.000000
														}
													}
												}
											}
										}
										JOINT LeftHandMiddle1
										{
											OFFSET 8.563995 0.000000 -0.000000
											CHANNELS 3 Xrotation Yrotation Zrotation
											JOINT LeftHandMiddle2
											{
												OFFSET 3.861618 0.000000 0.000000
												CHANNELS 3 Xrotation Yrotation Zrotation
												JOINT LeftHandMiddle3
												{
													OFFSET 3.701603 0.000000 0.000000
													CHANNELS 3 Xrotation Yrotation Zrotation
													JOINT LeftHandMiddle4
													{
														OFFSET 2.322544 0.000000 0.000000
														CHANNELS 3 Xrotation Yrotation Zrotation
														End Site
														{
															OFFSET 0.000000 0.000000 0.000000
														}
													}
												}
											}
										}
										JOINT LeftHandRing1
										{
											OFFSET 8.426460 -0.424637 -3.286992
											CHANNELS 3 Xrotation Yrotation Zrotation
											JOINT LeftHandRing2
											{
												OFFSET 3.126408 0.000000 0.000000
												CHANNELS 3 Xrotation Yrotation Zrotation
												JOINT LeftHandRing3
												{
													OFFSET 3.085026 0.000000 0.000000
													CHANNELS 3 Xrotation Yrotation Zrotation
													JOINT LeftHandRing4
													{
														OFFSET 1.644005 0.000000 0.000000
														CHANNELS 3 Xrotation Yrotation Zrotation
														End Site
														{
															OFFSET 0.000000 0.000000 0.000000
														}
													}
												}
											}
										}
									}
								}
							}
						}
					}
					JOINT RightShoulder
					{
						OFFSET -2.196100 4.412496 0.070690
						CHANNELS 3 Xrotation Yrotation Zrotation
						JOINT RightShoulder_split
						{
							OFFSET -2.196100 4.412496 0.070690
							CHANNELS 3 Xrotation Yrotation Zrotation
							JOINT RightArm
							{
								OFFSET -8.771282 -2.981682 -0.094208
								CHANNELS 3 Xrotation Yrotation Zrotation
								JOINT RightForeArm
								{
									OFFSET -8.494598 0.000000 0.000000
									CHANNELS 3 Xrotation Yrotation Zrotation
									JOINT RightHand
									{
										OFFSET -18.483803 0.000000 0.000001
										CHANNELS 3 Xrotation Yrotation Zrotation
										JOINT RightHandThumb1
										{
											OFFSET -2.527351 -1.008072 2.575253
											CHANNELS 3 Xrotation Yrotation Zrotation
											JOINT RightHandThumb2
											{
												OFFSET -2.321518 -1.340328 1.340329
												CHANNELS 3 Xrotation Yrotation Zrotation
												JOINT RightHandThumb3
												{
													OFFSET -2.657753 -1.534454 1.534455
													CHANNELS 3 Xrotation Yrotation Zrotation
													JOINT RightHandThumb4
													{
														OFFSET -1.807510 -1.043568 1.043567
														CHANNELS 3 Xrotation Yrotation Zrotation
														End Site
														{
															OFFSET 0.000000 0.000000 0.000000
														}
													}
												}
											}
										}
										JOINT RightHandIndex1
										{
											OFFSET -8.811420 0.015533 2.887987
											CHANNELS 3 Xrotation Yrotation Zrotation
											JOINT RightHandIndex2
											{
												OFFSET -3.537502 0.000000 0.000000
												CHANNELS 3 Xrotation Yrotation Zrotation
												JOINT RightHandIndex3
												{
													OFFSET -3.356201 0.000000 0.000000
													CHANNELS 3 Xrotation Yrotation Zrotation
													JOINT RightHandIndex4
													{
														OFFSET -1.933098 0.000000 0.000000
														CHANNELS 3 Xrotation Yrotation Zrotation
														End Site
														{
															OFFSET 0.000000 0.000000 0.000000
														}
													}
												}
											}
										}
										JOINT RightHandMiddle1
										{
											OFFSET -8.178135 0.000000 0.000000
											CHANNELS 3 Xrotation Yrotation Zrotation
											JOINT RightHandMiddle2
											{
												OFFSET -3.901302 0.000000 0.000000
												CHANNELS 3 Xrotation Yrotation Zrotation
												JOINT RightHandMiddle3
												{
													OFFSET -3.909599 0.000000 0.000000
													CHANNELS 3 Xrotation Yrotation Zrotation
													JOINT RightHandMiddle4
													{
														OFFSET -2.376003 0.000000 0.000000
														CHANNELS 3 Xrotation Yrotation Zrotation
														End Site
														{
															OFFSET 0.000000 0.000000 0.000000
														}
													}
												}
											}
										}
										JOINT RightHandRing1
										{
											OFFSET -7.559013 0.014137 -2.865403
											CHANNELS 3 Xrotation Yrotation Zrotation
											JOINT RightHandRing2
											{
												OFFSET -3.449306 0.000000 0.000000
												CHANNELS 3 Xrotation Yrotation Zrotation
												JOINT RightHandRing3
												{
													OFFSET -3.362106 0.000000 0.000000
													CHANNELS 3 Xrotation Yrotation Zrotation
													JOINT RightHandRing4
													{
														OFFSET -2.076401 0.000000 0.000000
														CHANNELS 3 Xrotation Yrotation Zrotation
														End Site
														{
															OFFSET 0.000000 0.000000 0.000000
														}
													}
												}
											}
										}
									}
								}
							}
						}
					}
				}
			}
		}
	}
	JOINT LeftUpLeg
	{
		OFFSET 10.205400 -3.823500 0.155100
		CHANNELS 3 Xrotation Yrotation Zrotation
		JOINT LeftLeg
		{
			OFFSET 0.708757 -12.982077 0.567790
			CHANNELS 3 Xrotation Yrotation Zrotation
			JOINT LeftFoot
			{
				OFFSET -0.708756 -10.717838 -2.184338
				CHANNELS 3 Xrotation Yrotation Zrotation
				JOINT LeftToeBase
				{
					OFFSET 0.108149 -7.191104 7.560241
					CHANNELS 3 Xrotation Yrotation Zrotation
					JOINT LeftToe_End
					{
						OFFSET 0.070230 0.081724 4.490308
						CHANNELS 3 Xrotation Yrotation Zrotation
						End Site
						{
							OFFSET 0.000000 0.000000 0.000000
						}
					}
				}
			}
		}
	}
	JOINT RightUpLeg
	{
		OFFSET -10.205400 -3.823500 0.005500
		CHANNELS 3 Xrotation Yrotation Zrotation
		JOINT RightLeg
		{
			OFFSET -0.708756 -12.982134 0.610632
			CHANNELS 3 Xrotation Yrotation Zrotation
			JOINT RightFoot
			{
				OFFSET 0.708754 -10.717769 -1.945823
				CHANNELS 3 Xrotation Yrotation Zrotation
				JOINT RightToeBase
				{
					OFFSET -0.108140 -7.191069 7.372968
					CHANNELS 3 Xrotation Yrotation Zrotation
					JOINT RightToe_End
					{
						OFFSET -0.070227 0.081735 4.479403
						CHANNELS 3 Xrotation Yrotation Zrotation
						End Site
						{
							OFFSET 0.000000 0.000000 0.000000
						}
					}
				}
			}
		}
	}
}
MOTION
Frames: 4
Frame Time: 0.016667
0.218633 31.465576 3.461884 -13.178805 -1.727699 -4.851972 5.920440 -0.781267 2.823961 9.021538 -0.429998 -0.455594 0.000000 0.000000 0.000000 9.028561 -0.103889 -0.473628 15.499588 0.680418 0.863641 -2.573556 0.818023 5.726066 0.000001 0.000000 0.000000 0.681783 3.908462 -11.397539 0.000000 0.000000 0.000000 74.323557 -65.285496 4.646527 0.000005 -18.010094 0.000002 -25.659124 7.272764 -3.768729 21.734265 5.841483 -2.497390 -16.162784 18.936377 19.036150 -9.576526 8.451312 10.577060 -0.000003 0.000000 -0.000004 0.152615 1.444569 -12.061579 0.086624 1.091002 -9.079584 0.021692 0.547225 -4.539370 0.000002 -0.000000 -0.000002 0.152210 1.442692 -12.045582 0.086930 1.092919 -9.095563 0.021681 0.547222 -4.539376 0.000001 0.000000 0.000000 0.152619 1.444570 -12.061577 0.086637 1.091014 -9.079578 0.021680 0.547219 -4.539376 -0.000001 -0.000001 0.000000 1.412996 0.332764 10.814155 0.000000 0.000000 0.000000 8.850504 40.127197 57.894036 -0.000012 26.003474 0.000005 37.130373 -9.963341 12.845713 -0.389751 -6.638711 -15.665594 8.907285 -22.771350 0.157761 0.754316 -6.942798 -2.431190 0.000003 -0.000002 -0.000000 0.174548 -1.551244 12.839282 0.140309 -1.392657 11.506928 0.035157 -0.699825 5.752611 -0.000001 0.000000 -0.000000 0.174544 -1.551246 12.839279 0.140313 -1.392655 11.506927 0.035160 -0.699829 5.752619 -0.000001 0.000001 -0.000002 0.174548 -1.551248 12.839278 0.140304 -1.392650 11.506925 0.035167 -0.699826 5.752618 0.000000 -0.000000 0.000000 -36.084504 19.374334 12.467923 50.563405 -7.906279 11.314572 -4.775498 -7.911722 -1.628659 -0.920825 0.000003 0.000003 -0.000000 -0.000000 -0.000000 -21.049280 -34.721526 -2.308369 41.290543 9.272872 -10.598103 -7.193513 6.709164 -3.940065 -0.000059 0.000000 0.000002 0.000000 0.000000 -0.000000 
0.223333 31.466106 3.461898 -13.182619 -1.766032 -4.836669 5.919477 -0.776554 2.818800 9.018471 -0.421017 -0.454876 0.000000 0.000000 0.000000 9.025362 -0.094398 -0.473343 15.500798 0.683416 0.851794 -2.570580 0.837382 5.719965 -0.000000 0.000000 -0.000000 0.682939 3.924061 -11.425618 0.000000 0.000000 0.000000 74.279735 -65.233907 4.636016 0.000004 -18.066240 0.000002 -25.471766 7.330789 -3.951204 21.734266 5.841483 -2.497390 -16.162784 18.936377 19.036147 -9.576525 8.451307 10.577060 -0.000002 0.000001 -0.000002 0.152616 1.444569 -12.061578 0.086622 1.091002 -9.079581 0.021690 0.547224 -4.539371 0.000001 0.000001 0.000001 0.152210 1.442692 -12.045581 0.086924 1.092919 -9.095566 0.021684 0.547219 -4.539376 -0.000001 -0.000001 0.000000 0.152615 1.444570 -12.061576 0.086637 1.091012 -9.079577 0.021678 0.547217 -4.539375 -0.000000 0.000000 -0.000002 1.413248 0.336089 10.799548 0.000000 0.000000 0.000000 8.846320 40.120514 57.885047 -0.000005 26.006528 -0.000020 37.193061 -9.934879 12.879315 -0.389751 -6.638713 -15.665596 8.907280 -22.771356 0.157760 0.754319 -6.942797 -2.431192 0.000003 -0.000002 -0.000002 0.174546 -1.551242 12.839279 0.140305 -1.392657 11.506924 0.035158 -0.699824 5.752610 -0.000002 0.000000 -0.000002 0.174544 -1.551244 12.839279 0.140312 -1.392655 11.506931 0.035162 -0.699829 5.752621 0.000000 0.000000 0.000001 0.174548 -1.551247 12.839278 0.140304 -1.392651 11.506926 0.035166 -0.699826 5.752618 0.000002 0.000000 -0.000001 -36.059465 19.438095 12.471774 50.543123 -7.909871 11.313051 -4.784093 -7.923193 -1.616228 -0.918808 -0.000001 0.000001 -0.000000 0.000000 -0.000000 -21.083047 -34.621812 -2.307050 41.315712 9.266893 -10.602345 -7.184531 6.663250 -3.919995 -0.000065 0.000000 0.000001 0.000000 0.000000 0.000000 
0.227522 31.466362 3.462015 -13.186693 -1.801694 -4.820053 5.918614 -0.772175 2.811225 9.015932 -0.413233 -0.454230 0.000000 0.000000 0.000000 9.022703 -0.086283 -0.473039 15.501750 0.686837 0.839503 -2.569937 0.854903 5.720953 -0.000001 0.000000 -0.000000 0.684057 3.939019 -11.452464 0.000000 0.000000 0.000000 74.202499 -65.177838 4.592529 0.000020 -18.130766 0.000004 -25.270467 7.391033 -4.135363 21.734265 5.841488 -2.497391 -16.162782 18.936375 19.036149 -9.576526 8.451313 10.577063 -0.000003 0.000003 -0.000000 0.152617 1.444569 -12.061579 0.086625 1.091002 -9.079580 0.021687 0.547222 -4.539371 0.000002 -0.000000 0.000001 0.152210 1.442692 -12.045582 0.086928 1.092920 -9.095563 0.021688 0.547222 -4.539376 -0.000002 0.000000 -0.000000 0.152616 1.444570 -12.061578 0.086637 1.091014 -9.079579 0.021676 0.547217 -4.539374 0.000001 0.000001 0.000001 1.414567 0.343950 10.792040 0.000000 0.000000 0.000000 8.851296 40.106656 57.862733 0.000003 26.024370 0.000013 37.255786 -9.909314 12.917785 -0.389754 -6.638714 -15.665594 8.907280 -22.771349 0.157761 0.754318 -6.942798 -2.431191 0.000001 -0.000003 -0.000000 0.174547 -1.551242 12.839280 0.140308 -1.392657 11.506924 0.035159 -0.699826 5.752609 -0.000000 0.000000 0.000000 0.174542 -1.551245 12.839279 0.140311 -1.392655 11.506928 0.035161 -0.699830 5.752618 0.000001 -0.000000 0.000002 0.174547 -1.551247 12.839279 0.140303 -1.392650 11.506927 0.035168 -0.699826 5.752620 -0.000000 0.000002 -0.000004 -36.033780 19.498720 12.472983 50.522581 -7.913716 11.311273 -4.791442 -7.933321 -1.604756 -0.917069 0.000005 0.000002 0.000000 -0.000001 0.000000 -21.120972 -34.526661 -2.311000 41.345423 9.259524 -10.607933 -7.177685 6.626769 -3.899537 -0.000058 -0.000000 0.000002 0.000000 0.000000 -0.000000 
0.230977 31.466221 3.462271 -13.190870 -1.833510 -4.802300 5.917805 -0.768230 2.800987 9.013795 -0.406899 -0.453622 0.000000 0.000000 0.000000 9.020473 -0.079824 -0.472674 15.502863 0.690591 0.827108 -2.571724 0.869698 5.729454 0.000001 -0.000000 -0.000000 0.685117 3.952924 -11.477598 0.000000 0.000000 0.000000 74.095846 -65.119222 4.518445 0.000001 -18.201462 0.000003 -25.061805 7.453142 -4.314685 21.734268 5.841486 -2.497392 -16.162787 18.936377 19.036147 -9.576525 8.451307 10.577058 -0.000004 -0.000002 -0.000004 0.152616 1.444569 -12.061580 0.086622 1.091002 -9.079582 0.021692 0.547221 -4.539368 -0.000003 -0.000000 -0.000001 0.152208 1.442692 -12.045583 0.086925 1.092919 -9.095561 0.021689 0.547221 -4.539379 0.000000 -0.000001 0.000001 0.152618 1.444570 -12.061577 0.086636 1.091013 -9.079580 0.021674 0.547217 -4.539376 0.000000 -0.000000 -0.000001 1.416791 0.355713 10.790538 0.000000 0.000000 0.000000 8.863880 40.086578 57.830624 0.000011 26.055141 -0.000020 37.317046 -9.887060 12.959799 -0.389751 -6.638708 -15.665594 8.907281 -22.771347 0.157765 0.754315 -6.942798 -2.431191 0.000003 -0.000000 0.000001 0.174550 -1.551241 12.839279 0.140305 -1.392656 11.506924 0.035158 -0.699824 5.752609 -0.000001 -0.000000 -0.000000 0.174546 -1.551244 12.839279 0.140313 -1.392655 11.506929 0.035160 -0.699829 5.752618 -0.000000 0.000000 0.000000 0.174551 -1.551246 12.839279 0.140307 -1.392651 11.506926 0.035165 -0.699826 5.752620 -0.000001 0.000000 -0.000001 -36.008624 19.554172 12.471411 50.503450 -7.917547 11.309383 -4.797858 -7.941724 -1.594688 -0.915587 0.000003 -0.000001 -0.000000 0.000000 0.000000 -21.163164 -34.439255 -2.321148 41.380254 9.250419 -10.614960 -7.173877 6.603104 -3.879249 -0.000060 -0.000002 0.000001 0.000000 0.000000 0.000000 
